<?xml version="1.0" standalone="no"?>
<!DOCTYPE svg PUBLIC "-//W3C//DTD SVG 20010904//EN"
 "http://www.w3.org/TR/2001/REC-SVG-20010904/DTD/svg10.dtd">
<svg version="1.0" xmlns="http://www.w3.org/2000/svg"
 width="1200.000000pt" height="1200.000000pt" viewBox="0 0 1200.000000 1200.000000"
 preserveAspectRatio="xMidYMid meet">

<g transform="translate(0.000000,1200.000000) scale(0.100000,-0.100000)"
fill="#000000" stroke="none">
<path d="M8045 11330 c-3 -5 -15 -10 -25 -10 -22 0 -242 -107 -412 -201 -356
-196 -744 -420 -1188 -685 -583 -348 -1046 -617 -1380 -802 -25 -14 -115 -64
-200 -112 -497 -280 -581 -328 -1000 -562 -292 -164 -730 -406 -972 -537 -130
-70 -209 -119 -213 -131 -3 -11 -1 -30 6 -42 24 -46 354 -597 439 -733 48 -77
101 -168 119 -203 l31 -62 3 -628 2 -628 -185 4 c-149 3 -211 0 -320 -16 -412
-62 -786 -267 -1073 -586 -435 -485 -576 -1168 -371 -1793 134 -410 420 -766
796 -992 386 -231 859 -307 1308 -210 52 12 129 24 170 28 42 4 96 15 120 24
25 8 88 25 140 37 52 11 142 35 200 52 58 16 132 36 165 43 34 7 101 29 150
48 50 18 160 53 245 75 375 100 500 132 580 147 47 9 139 27 205 40 157 32
312 51 515 65 90 6 168 14 172 16 12 8 258 -25 318 -42 30 -8 111 -40 180 -69
248 -106 530 -190 765 -229 55 -9 156 -28 225 -41 69 -13 204 -33 300 -45 96
-11 207 -25 245 -30 249 -34 533 -36 700 -5 44 9 109 20 145 26 90 14 131 25
235 64 188 72 350 183 541 370 109 106 138 142 163 195 41 86 42 150 5 179
-15 12 -32 21 -38 21 -21 0 -376 -290 -501 -410 -110 -106 -286 -204 -405
-227 -46 -8 -177 -16 -340 -20 -232 -5 -287 -3 -445 16 -99 12 -234 32 -300
46 -66 14 -219 41 -340 60 -312 50 -835 174 -1060 250 -233 79 -376 105 -580
105 -167 0 -244 -12 -545 -87 -718 -179 -956 -246 -1118 -315 -24 -10 -45 -18
-47 -18 -2 0 39 42 92 93 113 109 190 201 266 317 58 89 142 252 172 332 19
51 24 55 43 36 24 -24 493 -29 2457 -24 1873 5 2292 10 2312 29 12 12 13 3272
1 3452 -6 83 -10 171 -9 196 0 33 -5 51 -18 63 -17 15 -239 16 -2990 14 -1634
-2 -2963 0 -2954 4 10 3 39 13 65 23 46 16 145 74 364 213 203 128 406 243
679 385 342 177 931 485 970 507 69 38 596 315 800 420 210 107 257 132 510
265 237 125 442 242 910 523 101 60 308 189 430 267 28 17 106 67 175 110 69
44 138 90 154 103 16 12 51 34 77 48 27 13 49 28 49 32 0 23 -34 118 -72 202
-125 277 -478 895 -536 941 -27 20 -67 25 -77 9z m-505 -399 c19 -5 69 -18
110 -29 41 -11 156 -36 255 -56 99 -19 212 -45 250 -56 39 -12 75 -23 81 -25
6 -2 19 -27 28 -56 25 -76 65 -151 182 -346 57 -95 104 -177 104 -182 0 -23
-41 -15 -251 50 -339 105 -519 153 -888 239 -443 103 -481 113 -481 119 0 3
28 22 63 42 74 42 405 244 462 282 47 30 41 29 85 18z m-1540 -1020 c282 -57
428 -93 970 -241 157 -42 327 -87 378 -100 50 -13 92 -27 92 -32 0 -4 -4 -8
-9 -8 -5 0 -83 -41 -172 -90 -277 -155 -534 -290 -551 -290 -9 0 -82 18 -162
40 -226 62 -578 149 -886 219 -243 56 -524 122 -528 126 -3 3 115 70 358 203
91 49 208 115 260 145 52 30 97 55 100 56 3 0 70 -12 150 -28z m-1965 -1100
c175 -23 428 -62 580 -90 88 -17 225 -39 305 -51 243 -35 372 -62 559 -117
l65 -19 -90 -49 c-49 -27 -105 -57 -124 -68 -19 -11 -82 -46 -140 -77 -58 -31
-176 -96 -263 -144 -174 -96 -173 -96 -287 -61 -46 14 -346 65 -500 84 -103
14 -244 27 -490 46 -102 8 -261 22 -355 31 -93 9 -231 21 -305 28 l-135 12
285 141 c157 77 379 190 494 250 l210 109 55 -7 c31 -4 92 -12 136 -18z m5274
-1681 c-16 -19 -63 -82 -105 -140 -91 -124 -167 -218 -318 -394 -61 -71 -165
-196 -231 -278 l-120 -149 -317 0 c-175 1 -321 1 -324 1 -3 0 16 26 43 58 49
57 85 102 366 466 195 251 286 371 320 423 l27 43 203 2 c111 2 265 3 343 3
l141 0 -28 -35z m-3957 -117 c-81 -82 -222 -229 -312 -328 -91 -99 -197 -213
-236 -255 -40 -41 -107 -116 -150 -167 l-79 -92 -407 -3 c-363 -3 -406 -2
-394 12 342 408 560 661 685 795 37 39 86 93 110 120 24 28 53 53 65 57 12 3
211 6 444 7 l422 1 -148 -147z m2101 34 c-54 -62 -120 -139 -148 -172 -27 -32
-122 -142 -210 -244 -88 -103 -194 -226 -235 -276 -40 -49 -90 -107 -109 -127
l-35 -38 -281 -1 c-154 -1 -337 -4 -408 -7 -70 -4 -127 -4 -127 -1 0 3 8 14
18 25 9 10 29 35 43 54 15 19 59 69 98 110 40 41 120 129 179 194 59 66 193
212 297 325 105 113 201 221 213 239 l23 32 390 0 389 0 -97 -113z m-4312
-1380 c233 -112 286 -426 101 -603 -25 -24 -71 -57 -102 -72 -49 -24 -66 -27
-155 -27 -83 0 -108 4 -149 23 -315 145 -291 591 37 698 69 23 200 13 268 -19z
m3836 -631 c1 0 4 -13 8 -29 l7 -27 -778 0 c-429 0 -957 3 -1175 7 l-396 6
-10 28 -11 28 1176 -5 c648 -4 1178 -7 1179 -8z m1295 -21 l4 -35 -418 0 -418
0 0 30 0 30 278 3 c152 1 338 3 413 5 l137 2 4 -35z m-4075 -181 c284 -137
280 -526 -7 -667 -58 -29 -74 -32 -155 -32 -78 0 -98 4 -152 29 -69 31 -148
107 -181 172 -72 142 -44 313 69 427 121 121 272 146 426 71z m-2074 -13 c107
-37 181 -105 230 -211 16 -35 21 -66 21 -140 1 -85 -2 -102 -28 -158 -59 -128
-188 -212 -326 -214 -82 -1 -122 8 -183 39 -213 107 -267 403 -106 578 102
111 256 152 392 106z m2567 -257 c21 -53 20 -54 -110 -54 l-120 0 0 33 c0 19
3 37 7 40 3 4 53 7 110 7 102 0 104 0 113 -26z m1879 8 c1668 3 1674 3 1677
-17 3 -20 -2 -20 -1154 -17 -636 1 -1411 -1 -1722 -6 -311 -4 -566 -7 -567 -7
-2 1 -6 15 -9 32 l-6 30 54 -9 c32 -6 715 -8 1727 -6z m-3408 -231 c97 -61
111 -200 27 -278 -81 -75 -226 -51 -275 47 -83 164 94 329 248 231z m1569
-261 c0 -19 -8 -20 -195 -20 -182 0 -195 1 -195 18 0 10 2 21 4 23 2 2 90 3
195 1 182 -3 191 -4 191 -22z m2930 -2 c420 -2 516 -4 340 -8 -135 -3 -903 -7
-1707 -8 -1355 -4 -1463 -3 -1463 13 0 17 -65 17 2830 3z m-3746 -398 c132
-45 217 -144 246 -284 32 -156 -52 -324 -202 -403 -48 -25 -62 -28 -158 -28
-93 0 -112 3 -161 26 -106 50 -174 132 -204 245 -20 78 -19 129 5 205 63 199
277 307 474 239z m-1407 -92 c98 -36 185 -129 217 -232 27 -85 19 -202 -19
-279 -35 -71 -107 -140 -183 -175 -49 -23 -70 -27 -152 -27 -82 0 -103 4 -152
27 -79 37 -142 98 -181 177 -30 61 -32 73 -32 166 0 90 3 106 29 160 86 175
287 253 473 183z"/>
</g>
</svg>
