<svg id="Layer_1" viewBox="0 0 24 24" xmlns="http://www.w3.org/2000/svg" data-name="Layer 1"><path d="m6 12c3.314 0 6-2.686 6-6s-2.686-6-6-6-6 2.686-6 6 2.686 6 6 6zm2.5-9c.828 0 1.5.672 1.5 1.5s-.672 1.5-1.5 1.5-1.5-.672-1.5-1.5.672-1.5 1.5-1.5zm-1.439 4.561c.391-.391 1.023-.391 1.414 0s.391 1.023 0 1.414c-.661.661-1.54 1.025-2.475 1.025s-1.813-.364-2.475-1.025c-.391-.391-.391-1.023 0-1.414s1.023-.391 1.414 0c.566.566 1.555.566 2.121 0zm-3.561-4.561c.828 0 1.5.672 1.5 1.5s-.672 1.5-1.5 1.5-1.5-.672-1.5-1.5.672-1.5 1.5-1.5zm9.975 11.439c-.391.391-1.023.391-1.414 0-.566-.566-1.555-.566-2.121 0-.391.391-1.023.391-1.414 0-.206-.206-.296-.475-.277-.77 1.104-.324 2.104-.884 2.954-1.616.827.052 1.668.368 2.272.972.391.391.391 1.023 0 1.414zm10.525-1.438c0 .97-.701 2-2 2h-.33l-.219 1.656c-.328 2.477-2.459 4.344-4.957 4.344h-.494c0 1.654-1.346 3-3 3h-7c-1.654 0-3-1.346-3-3v-.971c0-.896-.263-1.732-.739-2.354-1.414-1.846-2.186-4.077-2.248-6.388 1.427 1.613 3.489 2.645 5.793 2.701 1.043 1.772 2.989 3.011 5.193 3.011 3.314 0 6-2.686 6-6 0-2.167-1.282-4.127-3.01-5.185-.054-2.304-1.083-4.366-2.693-5.794 3.347.084 6.44 1.644 8.504 4.399 1.268 1.567 4.199 7.162 4.199 8.582zm-9-3.501c0 .828-.672 1.5-1.5 1.5-.37 0-.726-.156-.989-.379.552-.776.97-1.651 1.218-2.598.708.12 1.27.734 1.27 1.477z"/></svg>